<?xml version="1.0" encoding="UTF-8" standalone="no"?>
<!DOCTYPE svg PUBLIC "-//W3C//DTD SVG 1.1//EN" "http://www.w3.org/Graphics/SVG/1.1/DTD/svg11.dtd">
<svg xmlns="http://www.w3.org/2000/svg" version="1.1" viewBox="0 0 596 597">
<g stroke-width="2.00" fill="none" stroke-linecap="butt">
<path stroke="#92abc7" vector-effect="non-scaling-stroke" d="
  M 567.81 0.00
  Q 567.33 0.25 566.00 0.25
  Q 285.00 0.25 4.00 0.27
  Q 2.21 0.27 0.75 1.04"
/>
<path stroke="#6180a0" vector-effect="non-scaling-stroke" d="
  M 0.75 1.04
  Q 0.49 1.43 0.00 1.19"
/>
<path stroke="#92abc7" vector-effect="non-scaling-stroke" d="
  M 568.06 0.00
  Q 578.81 0.63 589.56 0.00"
/>
<path stroke="#b3bfd2" vector-effect="non-scaling-stroke" d="
  M 594.94 597.00
  Q 596.68 596.18 595.00 595.71"
/>
<path stroke="#6180a0" vector-effect="non-scaling-stroke" d="
  M 595.00 595.71
  L 595.19 1.82
  A 0.65 0.62 -83.9 0 0 594.71 1.19
  Q 592.27 0.58 589.80 0.73
  Q 586.18 0.93 586.07 0.93
  Q 410.62 0.72 53.25 0.75
  Q 19.38 0.75 0.75 1.04"
/>
<path stroke="#8293ab" vector-effect="non-scaling-stroke" d="
  M 595.00 595.71
  Q 593.89 596.00 591.25 596.00
  Q 295.62 596.05 0.00 595.94"
/>
<path stroke="#98aabc" vector-effect="non-scaling-stroke" d="
  M 316.14 193.73
  L 303.62 159.67
  A 1.03 1.01 79.5 0 0 302.67 159.00
  L 292.39 159.00
  A 0.97 0.97 -80.1 0 0 291.48 159.64
  L 278.04 196.06
  Q 277.77 196.79 277.38 196.12
  L 240.68 132.79
  A 1.60 1.59 -15.0 0 0 239.30 132.00
  L 227.16 132.00
  A 0.66 0.66 0.0 0 0 226.50 132.66
  Q 226.50 198.12 226.50 263.25
  Q 226.50 270.69 227.42 299.50
  Q 227.76 309.93 227.82 319.51
  Q 228.13 369.19 228.00 419.42
  A 0.58 0.58 0.1 0 0 228.58 420.00
  Q 258.00 420.00 287.50 419.97
  Q 301.52 419.95 312.19 415.94
  Q 345.00 403.59 352.40 368.23
  Q 352.54 367.60 352.79 367.75
  A 0.76 0.39 -82.5 0 1 353.00 368.33
  L 353.06 419.43
  A 0.52 0.49 90.0 0 0 353.55 419.95
  L 365.64 420.00
  A 0.87 0.86 -90.0 0 0 366.50 419.13
  Q 366.50 290.50 366.50 161.50
  Q 366.50 143.03 366.08 132.68
  A 0.54 0.52 89.4 0 0 365.57 132.16
  L 352.92 132.03
  A 1.40 1.29 -73.4 0 0 351.75 132.73
  L 316.57 193.76
  Q 316.31 194.20 316.14 193.73"
/>
<path stroke="#98aabc" vector-effect="non-scaling-stroke" d="
  M 352.45 155.42
  Q 338.68 179.40 324.81 203.31
  Q 322.72 206.92 321.94 208.78
  A 1.34 1.29 47.2 0 0 321.92 209.72
  L 345.26 273.52
  A 0.74 0.74 79.7 0 0 345.95 274.00
  L 352.50 274.00
  A 0.50 0.50 0.0 0 0 353.00 273.50
  L 353.00 155.57
  Q 353.00 154.46 352.45 155.42"
/>
<path stroke="#98aabc" vector-effect="non-scaling-stroke" d="
  M 256.29 255.56
  Q 264.34 233.61 272.48 211.58
  A 1.88 1.86 40.2 0 0 272.34 210.00
  Q 256.65 183.20 241.57 157.38
  Q 241.20 156.76 241.24 157.39
  Q 241.25 157.48 241.29 157.60
  Q 241.50 158.13 241.50 159.25
  Q 241.50 216.25 241.50 273.34
  A 0.66 0.66 -89.9 0 0 242.16 274.00
  L 249.09 274.00
  A 0.79 0.77 9.4 0 0 249.83 273.48
  Q 253.10 264.26 256.29 255.56"
/>
<path stroke="#98aabc" vector-effect="non-scaling-stroke" d="
  M 297.28 172.43
  Q 291.17 188.88 285.44 205.19
  Q 284.62 207.51 285.15 209.26
  Q 285.20 209.46 287.03 212.60
  Q 291.68 220.63 296.27 228.61
  Q 296.48 228.97 296.69 228.61
  L 309.35 206.49
  A 1.39 1.36 50.8 0 0 309.45 205.35
  L 297.64 172.44
  Q 297.46 171.95 297.28 172.43"
/>
<path stroke="#98aabc" vector-effect="non-scaling-stroke" d="
  M 314.66 220.79
  L 304.61 238.38
  Q 303.75 239.88 303.75 241.58
  L 303.75 271.12
  A 0.88 0.88 0.0 0 0 304.63 272.00
  L 332.53 272.00
  A 0.64 0.64 80.3 0 0 333.13 271.15
  L 315.11 220.83
  Q 314.93 220.33 314.66 220.79"
/>
<path stroke="#98aabc" vector-effect="non-scaling-stroke" d="
  M 279.26 222.48
  L 261.69 271.41
  A 0.43 0.43 -80.6 0 0 262.10 271.99
  L 289.55 271.83
  A 0.53 0.53 0.0 0 0 290.07 271.31
  Q 290.38 259.04 290.26 246.77
  Q 290.26 246.67 290.34 244.74
  Q 290.48 241.33 288.44 237.81
  Q 283.97 230.14 279.57 222.45
  Q 279.39 222.13 279.26 222.48"
/>
<path stroke="#98aabc" vector-effect="non-scaling-stroke" d="
  M 325.83 293.74
  Q 346.96 309.02 352.46 334.45
  Q 352.57 334.97 352.65 334.45
  Q 352.85 333.03 353.00 329.75
  Q 353.19 325.56 351.90 322.60
  Q 350.89 320.27 350.87 320.21
  Q 346.09 307.08 341.11 294.03
  A 0.71 0.71 -9.9 0 0 340.44 293.56
  L 325.93 293.44
  Q 325.41 293.43 325.83 293.74"
/>
<path stroke="#98aabc" vector-effect="non-scaling-stroke" d="
  M 253.73 294.03
  Q 251.72 298.58 251.29 303.11
  Q 251.25 303.50 251.25 312.40
  Q 251.25 360.48 251.25 409.20
  A 0.55 0.55 0.0 0 0 251.80 409.75
  L 289.57 409.69
  A 0.69 0.68 -90.0 0 0 290.25 409.00
  L 290.25 294.38
  A 0.88 0.88 0.0 0 0 289.37 293.50
  L 254.54 293.50
  A 0.88 0.88 11.7 0 0 253.73 294.03"
/>
<path stroke="#98aabc" vector-effect="non-scaling-stroke" d="
  M 325.93 307.83
  Q 316.76 299.01 304.25 295.43
  A 0.39 0.39 8.0 0 0 303.75 295.80
  L 303.75 406.97
  A 0.38 0.38 -8.6 0 0 304.24 407.33
  Q 327.40 400.29 337.62 378.72
  Q 345.09 362.96 343.50 345.00
  Q 341.54 322.85 325.93 307.83"
/>
</g>
<path fill="#92abc7" d="
  M 0.00 0.00
  L 567.81 0.00
  Q 567.33 0.25 566.00 0.25
  Q 285.00 0.25 4.00 0.27
  Q 2.21 0.27 0.75 1.04
  Q 0.49 1.43 0.00 1.19
  L 0.00 0.00
  Z"
/>
<path fill="#92abc7" d="
  M 567.81 0.00
  L 568.06 0.00
  Q 578.81 0.63 589.56 0.00
  L 596.00 0.00
  L 596.00 597.00
  L 594.94 597.00
  Q 596.68 596.18 595.00 595.71
  L 595.19 1.82
  A 0.65 0.62 -83.9 0 0 594.71 1.19
  Q 592.27 0.58 589.80 0.73
  Q 586.18 0.93 586.07 0.93
  Q 410.62 0.72 53.25 0.75
  Q 19.38 0.75 0.75 1.04
  Q 2.21 0.27 4.00 0.27
  Q 285.00 0.25 566.00 0.25
  Q 567.33 0.25 567.81 0.00
  Z"
/>
<path fill="#92abc7" d="
  M 568.06 0.00
  L 589.56 0.00
  Q 578.81 0.63 568.06 0.00
  Z"
/>
<path fill="#305478" d="
  M 595.00 595.71
  Q 593.89 596.00 591.25 596.00
  Q 295.62 596.05 0.00 595.94
  L 0.00 1.19
  Q 0.49 1.43 0.75 1.04
  Q 19.38 0.75 53.25 0.75
  Q 410.62 0.72 586.07 0.93
  Q 586.18 0.93 589.80 0.73
  Q 592.27 0.58 594.71 1.19
  A 0.65 0.62 -83.9 0 1 595.19 1.82
  L 595.00 595.71
  Z
  M 316.14 193.73
  L 303.62 159.67
  A 1.03 1.01 79.5 0 0 302.67 159.00
  L 292.39 159.00
  A 0.97 0.97 -80.1 0 0 291.48 159.64
  L 278.04 196.06
  Q 277.77 196.79 277.38 196.12
  L 240.68 132.79
  A 1.60 1.59 -15.0 0 0 239.30 132.00
  L 227.16 132.00
  A 0.66 0.66 0.0 0 0 226.50 132.66
  Q 226.50 198.12 226.50 263.25
  Q 226.50 270.69 227.42 299.50
  Q 227.76 309.93 227.82 319.51
  Q 228.13 369.19 228.00 419.42
  A 0.58 0.58 0.1 0 0 228.58 420.00
  Q 258.00 420.00 287.50 419.97
  Q 301.52 419.95 312.19 415.94
  Q 345.00 403.59 352.40 368.23
  Q 352.54 367.60 352.79 367.75
  A 0.76 0.39 -82.5 0 1 353.00 368.33
  L 353.06 419.43
  A 0.52 0.49 90.0 0 0 353.55 419.95
  L 365.64 420.00
  A 0.87 0.86 -90.0 0 0 366.50 419.13
  Q 366.50 290.50 366.50 161.50
  Q 366.50 143.03 366.08 132.68
  A 0.54 0.52 89.4 0 0 365.57 132.16
  L 352.92 132.03
  A 1.40 1.29 -73.4 0 0 351.75 132.73
  L 316.57 193.76
  Q 316.31 194.20 316.14 193.73
  Z"
/>
<path fill="#ffffff" d="
  M 316.57 193.76
  L 351.75 132.73
  A 1.40 1.29 -73.4 0 1 352.92 132.03
  L 365.57 132.16
  A 0.54 0.52 89.4 0 1 366.08 132.68
  Q 366.50 143.03 366.50 161.50
  Q 366.50 290.50 366.50 419.13
  A 0.87 0.86 90.0 0 1 365.64 420.00
  L 353.55 419.95
  A 0.52 0.49 90.0 0 1 353.06 419.43
  L 353.00 368.33
  A 0.76 0.39 -82.5 0 0 352.79 367.75
  Q 352.54 367.60 352.40 368.23
  Q 345.00 403.59 312.19 415.94
  Q 301.52 419.95 287.50 419.97
  Q 258.00 420.00 228.58 420.00
  A 0.58 0.58 0.3 0 1 228.00 419.42
  Q 228.13 369.19 227.82 319.51
  Q 227.76 309.93 227.42 299.50
  Q 226.50 270.69 226.50 263.25
  Q 226.50 198.12 226.50 132.66
  A 0.66 0.66 0.0 0 1 227.16 132.00
  L 239.30 132.00
  A 1.60 1.59 -15.0 0 1 240.68 132.79
  L 277.38 196.12
  Q 277.77 196.79 278.04 196.06
  L 291.48 159.64
  A 0.97 0.97 -80.1 0 1 292.39 159.00
  L 302.67 159.00
  A 1.03 1.01 79.5 0 1 303.62 159.67
  L 316.14 193.73
  Q 316.31 194.20 316.57 193.76
  Z
  M 352.45 155.42
  Q 338.68 179.40 324.81 203.31
  Q 322.72 206.92 321.94 208.78
  A 1.34 1.29 47.2 0 0 321.92 209.72
  L 345.26 273.52
  A 0.74 0.74 79.7 0 0 345.95 274.00
  L 352.50 274.00
  A 0.50 0.50 0.0 0 0 353.00 273.50
  L 353.00 155.57
  Q 353.00 154.46 352.45 155.42
  Z
  M 256.29 255.56
  Q 264.34 233.61 272.48 211.58
  A 1.88 1.86 40.2 0 0 272.34 210.00
  Q 256.65 183.20 241.57 157.38
  Q 241.20 156.76 241.24 157.39
  Q 241.25 157.48 241.29 157.60
  Q 241.50 158.13 241.50 159.25
  Q 241.50 216.25 241.50 273.34
  A 0.66 0.66 -89.9 0 0 242.16 274.00
  L 249.09 274.00
  A 0.79 0.77 9.4 0 0 249.83 273.48
  Q 253.10 264.26 256.29 255.56
  Z
  M 297.28 172.43
  Q 291.17 188.88 285.44 205.19
  Q 284.62 207.51 285.15 209.26
  Q 285.20 209.46 287.03 212.60
  Q 291.68 220.63 296.27 228.61
  Q 296.48 228.97 296.69 228.61
  L 309.35 206.49
  A 1.39 1.36 50.8 0 0 309.45 205.35
  L 297.64 172.44
  Q 297.46 171.95 297.28 172.43
  Z
  M 314.66 220.79
  L 304.61 238.38
  Q 303.75 239.88 303.75 241.58
  L 303.75 271.12
  A 0.88 0.88 0.0 0 0 304.63 272.00
  L 332.53 272.00
  A 0.64 0.64 80.3 0 0 333.13 271.15
  L 315.11 220.83
  Q 314.93 220.33 314.66 220.79
  Z
  M 279.26 222.48
  L 261.69 271.41
  A 0.43 0.43 -80.6 0 0 262.10 271.99
  L 289.55 271.83
  A 0.53 0.53 0.0 0 0 290.07 271.31
  Q 290.38 259.04 290.26 246.77
  Q 290.26 246.67 290.34 244.74
  Q 290.48 241.33 288.44 237.81
  Q 283.97 230.14 279.57 222.45
  Q 279.39 222.13 279.26 222.48
  Z
  M 325.83 293.74
  Q 346.96 309.02 352.46 334.45
  Q 352.57 334.97 352.65 334.45
  Q 352.85 333.03 353.00 329.75
  Q 353.19 325.56 351.90 322.60
  Q 350.89 320.27 350.87 320.21
  Q 346.09 307.08 341.11 294.03
  A 0.71 0.71 -9.9 0 0 340.44 293.56
  L 325.93 293.44
  Q 325.41 293.43 325.83 293.74
  Z
  M 253.73 294.03
  Q 251.72 298.58 251.29 303.11
  Q 251.25 303.50 251.25 312.40
  Q 251.25 360.48 251.25 409.20
  A 0.55 0.55 0.0 0 0 251.80 409.75
  L 289.57 409.69
  A 0.69 0.68 -90.0 0 0 290.25 409.00
  L 290.25 294.38
  A 0.88 0.88 0.0 0 0 289.37 293.50
  L 254.54 293.50
  A 0.88 0.88 11.7 0 0 253.73 294.03
  Z
  M 325.93 307.83
  Q 316.76 299.01 304.25 295.43
  A 0.39 0.39 8.0 0 0 303.75 295.80
  L 303.75 406.97
  A 0.38 0.38 -8.6 0 0 304.24 407.33
  Q 327.40 400.29 337.62 378.72
  Q 345.09 362.96 343.50 345.00
  Q 341.54 322.85 325.93 307.83
  Z"
/>
<path fill="#305478" d="
  M 352.45 155.42
  Q 353.00 154.46 353.00 155.57
  L 353.00 273.50
  A 0.50 0.50 0.0 0 1 352.50 274.00
  L 345.95 274.00
  A 0.74 0.74 79.7 0 1 345.26 273.52
  L 321.92 209.72
  A 1.34 1.29 47.2 0 1 321.94 208.78
  Q 322.72 206.92 324.81 203.31
  Q 338.68 179.40 352.45 155.42
  Z"
/>
<path fill="#305478" d="
  M 256.29 255.56
  Q 253.10 264.26 249.83 273.48
  A 0.79 0.77 9.4 0 1 249.09 274.00
  L 242.16 274.00
  A 0.66 0.66 89.8 0 1 241.50 273.34
  Q 241.50 216.25 241.50 159.25
  Q 241.50 158.13 241.29 157.60
  Q 241.25 157.48 241.24 157.39
  Q 241.20 156.76 241.57 157.38
  Q 256.65 183.20 272.34 210.00
  A 1.88 1.86 40.2 0 1 272.48 211.58
  Q 264.34 233.61 256.29 255.56
  Z"
/>
<path fill="#305478" d="
  M 297.28 172.43
  Q 297.46 171.95 297.64 172.44
  L 309.45 205.35
  A 1.39 1.36 50.8 0 1 309.35 206.49
  L 296.69 228.61
  Q 296.48 228.97 296.27 228.61
  Q 291.68 220.63 287.03 212.60
  Q 285.20 209.46 285.15 209.26
  Q 284.62 207.51 285.44 205.19
  Q 291.17 188.88 297.28 172.43
  Z"
/>
<path fill="#305478" d="
  M 314.66 220.79
  Q 314.93 220.33 315.11 220.83
  L 333.13 271.15
  A 0.64 0.64 80.3 0 1 332.53 272.00
  L 304.63 272.00
  A 0.88 0.88 0.0 0 1 303.75 271.12
  L 303.75 241.58
  Q 303.75 239.88 304.61 238.38
  L 314.66 220.79
  Z"
/>
<path fill="#305478" d="
  M 279.26 222.48
  Q 279.39 222.13 279.57 222.45
  Q 283.97 230.14 288.44 237.81
  Q 290.48 241.33 290.34 244.74
  Q 290.26 246.67 290.26 246.77
  Q 290.38 259.04 290.07 271.31
  A 0.53 0.53 0.0 0 1 289.55 271.83
  L 262.10 271.99
  A 0.43 0.43 -80.6 0 1 261.69 271.41
  L 279.26 222.48
  Z"
/>
<path fill="#305478" d="
  M 325.83 293.74
  Q 325.41 293.43 325.93 293.44
  L 340.44 293.56
  A 0.71 0.71 -9.9 0 1 341.11 294.03
  Q 346.09 307.08 350.87 320.21
  Q 350.89 320.27 351.90 322.60
  Q 353.19 325.56 353.00 329.75
  Q 352.85 333.03 352.65 334.45
  Q 352.57 334.97 352.46 334.45
  Q 346.96 309.02 325.83 293.74
  Z"
/>
<path fill="#305478" d="
  M 253.73 294.03
  A 0.88 0.88 11.7 0 1 254.54 293.50
  L 289.37 293.50
  A 0.88 0.88 0.0 0 1 290.25 294.38
  L 290.25 409.00
  A 0.69 0.68 -90.0 0 1 289.57 409.69
  L 251.80 409.75
  A 0.55 0.55 0.0 0 1 251.25 409.20
  Q 251.25 360.48 251.25 312.40
  Q 251.25 303.50 251.29 303.11
  Q 251.72 298.58 253.73 294.03
  Z"
/>
<path fill="#305478" d="
  M 325.93 307.83
  Q 341.54 322.85 343.50 345.00
  Q 345.09 362.96 337.62 378.72
  Q 327.40 400.29 304.24 407.33
  A 0.38 0.38 -8.6 0 1 303.75 406.97
  L 303.75 295.80
  A 0.39 0.39 8.0 0 1 304.25 295.43
  Q 316.76 299.01 325.93 307.83
  Z"
/>
<path fill="#d4d2dd" d="
  M 595.00 595.71
  Q 596.68 596.18 594.94 597.00
  L 0.00 597.00
  L 0.00 595.94
  Q 295.62 596.05 591.25 596.00
  Q 593.89 596.00 595.00 595.71
  Z"
/>
</svg>
